<?xml version="1.0" encoding="utf-8"?>
<!-- Generator: Adobe Illustrator 21.1.0, SVG Export Plug-In . SVG Version: 6.00 Build 0)  -->
<svg version="1.1" id="Layer_1" xmlns="http://www.w3.org/2000/svg" xmlns:xlink="http://www.w3.org/1999/xlink" x="0px" y="0px"
	 viewBox="0 0 582 101.9" style="enable-background:new 0 0 582 101.9;" xml:space="preserve">
<style type="text/css">
	.st0{fill:#1D5632;}
</style>
<g>
	<path class="st0" d="M164.6,58.1v30.1c0,1.3,0.3,2.4,1,3.1c0.6,0.7,1.7,1.3,3.3,1.7v2.1h-28.3V93c1.6-0.4,2.7-1,3.3-1.7
		c0.6-0.7,0.9-1.7,0.9-3.1V11.3c0-1.4-0.3-2.4-0.9-3.1c-0.6-0.7-1.7-1.3-3.3-1.7V4.3h56.8c6.9,0,12.4,0.4,16.5,1.2
		c4.1,0.8,7.6,2.2,10.6,4.2c3.5,2.3,6.1,5.4,7.8,9.4c1.6,3.8,2.5,7.9,2.5,12.2c0,14.8-8.2,23.5-24.7,26l17.6,25.1
		c3.1,4.4,5.4,7.2,6.8,8.5c1.4,1.3,3.2,2,5.3,2.1v2.1H207V93c2.3-0.4,3.4-1.2,3.4-2.4c0-0.8-1-2.7-3.1-5.8l-18.4-26.7H164.6z
		 M164.6,43.1h30.6c4.5,0,7.7-0.1,9.6-0.4c1.9-0.3,3.6-0.8,5.1-1.7c3.4-1.8,5.1-5.1,5.1-9.8c0-4.7-1.7-8-5.1-9.8
		c-1.6-0.9-3.3-1.5-5.1-1.7c-1.8-0.2-5-0.4-9.6-0.4h-30.6V43.1z"/>
	<path class="st0" d="M310.1,68.7l24.1-53.3c1-2.3,1.5-4,1.5-5.3c0-1.9-1.5-3.1-4.4-3.7V4.3h31.1v2.1c-2,0.3-3.3,0.8-4.1,1.7
		c-0.8,0.8-2.1,3.3-3.9,7.3l-31.5,67.9c-1.3,2.9-2,4.8-2,5.7c0,2.3,1.4,3.6,4.2,4v2.1h-31.3V93c2.8-0.4,4.2-1.8,4.2-4.1
		c0-0.8-0.7-2.7-2-5.6l-31.5-67.9c-1.9-4-3.2-6.5-3.9-7.3c-0.8-0.8-2.1-1.4-4.1-1.7V4.3h32.2v2.1c-2.9,0.6-4.4,1.8-4.4,3.7
		c0,1.2,0.5,3,1.5,5.3L310.1,68.7z"/>
	<path class="st0" d="M396.1,88.1V11.3c0-1.3-0.3-2.3-1-3.1c-0.7-0.7-1.9-1.3-3.7-1.7V4.3h31.1v2.1c-1.8,0.4-3,1-3.7,1.7
		c-0.7,0.7-1,1.8-1,3.1v76.9c0,1.4,0.4,2.4,1.1,3.2c0.7,0.7,1.9,1.3,3.6,1.7v2.1h-31.1V93c1.8-0.4,3-1,3.7-1.7
		C395.8,90.5,396.1,89.5,396.1,88.1z"/>
	<path class="st0" d="M546.9,87.1c4.5-5.1,6.8-11,6.8-17.6c0-4.1-1-8.1-2.9-11.8c-1.9-3.6-4.5-6.6-7.8-8.9c-3.2-2.1-7-3.8-11.2-5
		c-4.2-1.2-9.8-2.2-16.7-2.8l-11.6-1.1c-7.8-0.7-12.9-1.4-15.3-2.1c-4.7-1.3-7.1-3.9-7.1-7.7c0-2.3,0.9-4.4,2.8-6.3
		c1.8-1.9,4.3-3.3,7.2-4.3c4-1.2,8.7-1.8,13.9-1.8c11.8,0,22.3,2.9,31.1,8.7c3,1.9,4.5,3.7,4.5,5.4c0,0.2,0,0.5-0.1,0.9l1.5,0.8
		l11.7-21.8l-1.5-0.8c-1.4,1-2.6,1.5-3.7,1.5c-0.7,0-2.5-0.5-5.4-1.6c-8.3-3.3-15.2-5.6-20.8-6.8c-5.5-1.2-11.5-1.9-17.9-1.9
		c-15.2,0-26.7,3.5-34.3,10.3c-5.8,5.2-8.7,11.8-8.7,19.7c0,4.8,1.1,9.1,3.4,12.8c2.5,4.1,6,7.2,10.4,9.3c3.1,1.5,6.3,2.6,9.4,3.2
		c3.1,0.7,8.5,1.4,16.1,2.1l11.4,1.1c7.7,0.8,12.7,1.7,15.3,2.6c3.7,1.4,5.6,3.8,5.6,7.1c0,2.2-0.8,4.3-2.4,6.3
		c-1.6,2-3.7,3.6-6.3,4.7c-4.7,2.1-10.3,3.2-16.9,3.2c-6,0-12.5-1-19.2-2.9c-6.7-2-11.8-4.3-15-7.1c-2.2-1.8-3.3-3.9-3.3-6.1v-0.7
		l-1.6-0.7l-10.6,22.7l1.6,0.8c1.4-1,2.4-1.5,3.1-1.5c0.4,0,1.3,0.2,5.1,1.8c12.9,6,26.1,9,39.4,9c7.4,0,14.4-0.9,20.8-2.6
		C536.4,95.3,542.8,91.8,546.9,87.1z"/>
	<g>
		<path class="st0" d="M74.8,4.8c6.4,2,12.2,5,17.4,9c5.3,4,9.6,9.1,12.9,15.2c3.4,6.1,5,13.4,5,21.8c0,8.4-1.7,15.6-5,21.8
			c-3.4,6.1-7.7,11.2-12.9,15.2c-5.3,4-11.1,6.9-17.4,8.7c-6.4,1.8-12.6,2.7-18.8,2.7c-6.2,0-12.4-0.9-18.8-2.7
			c-6.4-1.8-12.2-4.7-17.4-8.7c-5.3-4-9.6-9.1-12.9-15.2c-3.4-6.1-5-13.4-5-21.8c0-8.4,1.7-15.6,5-21.8c3.4-6.1,7.7-11.2,12.9-15.2
			c5.3-4,11.1-7,17.4-9c6.4-2,12.6-3,18.8-3C62.1,1.8,68.4,2.8,74.8,4.8z M43.9,20.5c-4,1.5-7.7,3.5-10.9,6.3
			c-3.2,2.7-5.9,6.1-7.9,10.1c-2,4-3,8.6-3,13.7c0,5.1,1,9.7,3,13.7c2,4,4.6,7.4,7.9,10.1c3.2,2.7,6.9,4.8,10.9,6.3
			c4,1.5,8.1,2.2,12.1,2.2c4,0,8.1-0.7,12.1-2.2c4-1.5,7.7-3.6,10.9-6.3c3.2-2.7,5.9-6.1,7.9-10.1c2-4,3-8.6,3-13.7
			c0-5.1-1-9.6-3-13.7c-2-4-4.6-7.4-7.9-10.1c-3.2-2.7-6.9-4.8-10.9-6.3C64,19,60,18.3,56,18.3C52,18.3,47.9,19,43.9,20.5z"/>
	</g>
	<path class="st0" d="M566.9,17c0-3.3,2.5-5.7,5.6-5.7c3.1,0,5.6,2.5,5.6,5.7c0,3.3-2.5,5.7-5.6,5.7C569.4,22.7,566.9,20.3,566.9,17
		z M572.5,23.9c3.7,0,6.9-2.9,6.9-6.9c0-3.9-3.2-6.9-6.9-6.9c-3.8,0-7,2.9-7,6.9C565.5,21,568.7,23.9,572.5,23.9z M571.1,17.5h1.4
		l2.1,3.4h1.3l-2.3-3.5c1.2-0.1,2.1-0.8,2.1-2.2c0-1.6-0.9-2.3-2.8-2.3h-3V21h1.2V17.5z M571.1,16.5v-2.5h1.6c0.8,0,1.7,0.2,1.7,1.2
		c0,1.2-0.9,1.3-1.9,1.3H571.1z"/>
</g>
</svg>
