<?xml version="1.0" encoding="UTF-8" standalone="no"?>
<!-- Created with Inkscape (http://www.inkscape.org/) -->

<svg
   xmlns:dc="http://purl.org/dc/elements/1.1/"
   xmlns:cc="http://creativecommons.org/ns#"
   xmlns:rdf="http://www.w3.org/1999/02/22-rdf-syntax-ns#"
   xmlns:svg="http://www.w3.org/2000/svg"
   xmlns="http://www.w3.org/2000/svg"
   xmlns:sodipodi="http://sodipodi.sourceforge.net/DTD/sodipodi-0.dtd"
   xmlns:inkscape="http://www.inkscape.org/namespaces/inkscape"
   width="26.105383mm"
   height="25.660589mm"
   viewBox="0 0 92.499388 90.923347"
   id="svg3699"
   version="1.1"
   inkscape:version="0.91 r13725"
   sodipodi:docname="marco_inc_v3.svg">
  <defs
     id="defs3701">
    <marker
       orient="auto"
       id="DistanceX"
       style="overflow:visible"
       refX="0"
       refY="0">
      <path
         id="path3714"
         d="M 3,-3 -3,3 M 0,-5 0,5"
         style="stroke:#000000;stroke-width:0.5"
         inkscape:connector-curvature="0" />
    </marker>
    <pattern
       id="Hatch"
       x="0"
       y="0"
       patternUnits="userSpaceOnUse"
       width="8"
       height="8">
      <path
         id="path3717"
         d="M8 4 l-4,4"
         stroke-width="0.25"
         stroke="#000000"
         linecap="square" />
      <path
         id="path3719"
         d="M6 2 l-4,4"
         stroke-width="0.25"
         stroke="#000000"
         linecap="square" />
      <path
         id="path3721"
         d="M4 0 l-4,4"
         stroke-width="0.25"
         stroke="#000000"
         linecap="square" />
    </pattern>
    <symbol
       id="*Model_Space" />
    <symbol
       id="*Paper_Space" />
    <symbol
       id="*Paper_Space0" />
    <symbol
       id="_ArchTick">
      <path
         id="path3727"
         d="m -12134.513,5182.153 496.063,-496.063"
         style="fill:none;stroke:#000000;stroke-linecap:round"
         inkscape:connector-curvature="0" />
    </symbol>
    <symbol
       id="RA_Marco_de_incêncio">
      <path
         id="path3730"
         d="m -11514.434,4934.1215 a 372.04724,372.04724 0 1 0 -744.094,0 372.04724,372.04724 0 1 0 744.094,0 z"
         style="fill:none;stroke:#000000;stroke-linecap:round"
         inkscape:connector-curvature="0" />
      <path
         id="path3732"
         d="m -11712.859,4934.1215 a 173.62205,173.62205 0 1 0 -347.244,0 173.62205,173.62205 0 1 0 347.244,0 z"
         style="fill:none;stroke:#000000;stroke-linecap:round"
         inkscape:connector-curvature="0" />
      <path
         id="path3734"
         d="m -11712.859,4934.1215 a 173.62205,173.62205 0 0 0 -347.244,0 173.62205,173.62205 0 0 0 347.244,0 z"
         style="fill:#000000"
         inkscape:connector-curvature="0" />
      <path
         id="path3736"
         d="m -11514.434,4934.1215 a 372.04724,372.04724 0 0 0 -744.094,0 372.04724,372.04724 0 0 0 744.094,0 z"
         style="fill:#000000"
         inkscape:connector-curvature="0" />
    </symbol>
    <marker
       orient="auto"
       id="DistanceX-1"
       style="overflow:visible"
       refX="0"
       refY="0">
      <path
         id="path3785"
         d="M 3,-3 -3,3 M 0,-5 0,5"
         style="stroke:#000000;stroke-width:0.5"
         inkscape:connector-curvature="0" />
    </marker>
    <pattern
       id="Hatch-6"
       x="0"
       y="0"
       patternUnits="userSpaceOnUse"
       width="8"
       height="8">
      <path
         id="path3788"
         d="M8 4 l-4,4"
         stroke-width="0.25"
         stroke="#000000"
         linecap="square" />
      <path
         id="path3790"
         d="M6 2 l-4,4"
         stroke-width="0.25"
         stroke="#000000"
         linecap="square" />
      <path
         id="path3792"
         d="M4 0 l-4,4"
         stroke-width="0.25"
         stroke="#000000"
         linecap="square" />
    </pattern>
    <symbol
       id="*Model_Space-0" />
    <symbol
       id="*Paper_Space-4" />
    <symbol
       id="*Paper_Space0-0" />
    <symbol
       id="_ArchTick-4">
      <path
         id="path3798"
         d="m -12134.513,5182.153 496.063,-496.063"
         style="fill:none;stroke:#000000;stroke-linecap:round"
         inkscape:connector-curvature="0" />
    </symbol>
    <symbol
       id="RA_Marco_de_incêncio-9">
      <path
         id="path3801"
         d="m -11514.434,4934.1215 a 372.04724,372.04724 0 1 0 -744.094,0 372.04724,372.04724 0 1 0 744.094,0 z"
         style="fill:none;stroke:#000000;stroke-linecap:round"
         inkscape:connector-curvature="0" />
      <path
         id="path3803"
         d="m -11712.859,4934.1215 a 173.62205,173.62205 0 1 0 -347.244,0 173.62205,173.62205 0 1 0 347.244,0 z"
         style="fill:none;stroke:#000000;stroke-linecap:round"
         inkscape:connector-curvature="0" />
      <path
         id="path3805"
         d="m -11712.859,4934.1215 a 173.62205,173.62205 0 0 0 -347.244,0 173.62205,173.62205 0 0 0 347.244,0 z"
         style="fill:#000000"
         inkscape:connector-curvature="0" />
      <path
         id="path3807"
         d="m -11514.434,4934.1215 a 372.04724,372.04724 0 0 0 -744.094,0 372.04724,372.04724 0 0 0 744.094,0 z"
         style="fill:#000000"
         inkscape:connector-curvature="0" />
    </symbol>
    <marker
       orient="auto"
       id="DistanceX-0"
       style="overflow:visible"
       refX="0"
       refY="0">
      <path
         id="path3853"
         d="M 3,-3 -3,3 M 0,-5 0,5"
         style="stroke:#000000;stroke-width:0.5"
         inkscape:connector-curvature="0" />
    </marker>
    <pattern
       id="Hatch-9"
       x="0"
       y="0"
       patternUnits="userSpaceOnUse"
       width="8"
       height="8">
      <path
         id="path3856"
         d="M8 4 l-4,4"
         stroke-width="0.25"
         stroke="#000000"
         linecap="square" />
      <path
         id="path3858"
         d="M6 2 l-4,4"
         stroke-width="0.25"
         stroke="#000000"
         linecap="square" />
      <path
         id="path3860"
         d="M4 0 l-4,4"
         stroke-width="0.25"
         stroke="#000000"
         linecap="square" />
    </pattern>
    <symbol
       id="*Model_Space-4" />
    <symbol
       id="*Paper_Space-44" />
    <symbol
       id="*Paper_Space0-5" />
    <symbol
       id="_ArchTick-2">
      <path
         id="path3866"
         d="m -12134.513,5182.153 496.063,-496.063"
         style="fill:none;stroke:#000000;stroke-linecap:round"
         inkscape:connector-curvature="0" />
    </symbol>
    <symbol
       id="RA_Marco_de_incêncio-7">
      <path
         id="path3869"
         d="m -11514.434,4934.1215 a 372.04724,372.04724 0 1 0 -744.094,0 372.04724,372.04724 0 1 0 744.094,0 z"
         style="fill:none;stroke:#000000;stroke-linecap:round"
         inkscape:connector-curvature="0" />
      <path
         id="path3871"
         d="m -11712.859,4934.1215 a 173.62205,173.62205 0 1 0 -347.244,0 173.62205,173.62205 0 1 0 347.244,0 z"
         style="fill:none;stroke:#000000;stroke-linecap:round"
         inkscape:connector-curvature="0" />
      <path
         id="path3873"
         d="m -11712.859,4934.1215 a 173.62205,173.62205 0 0 0 -347.244,0 173.62205,173.62205 0 0 0 347.244,0 z"
         style="fill:#000000"
         inkscape:connector-curvature="0" />
      <path
         id="path3875"
         d="m -11514.434,4934.1215 a 372.04724,372.04724 0 0 0 -744.094,0 372.04724,372.04724 0 0 0 744.094,0 z"
         style="fill:#000000"
         inkscape:connector-curvature="0" />
    </symbol>
  </defs>
  <sodipodi:namedview
     id="base"
     pagecolor="#ffffff"
     bordercolor="#666666"
     borderopacity="1.0"
     inkscape:pageopacity="0.0"
     inkscape:pageshadow="2"
     inkscape:zoom="0.70737049"
     inkscape:cx="435.38655"
     inkscape:cy="-306.07597"
     inkscape:document-units="mm"
     inkscape:current-layer="layer1"
     showgrid="false"
     inkscape:window-width="1846"
     inkscape:window-height="1057"
     inkscape:window-x="-8"
     inkscape:window-y="-8"
     inkscape:window-maximized="1"
     fit-margin-top="0"
     fit-margin-left="0"
     fit-margin-right="0"
     fit-margin-bottom="0" />
  <metadata
     id="metadata3704">
    <rdf:RDF>
      <cc:Work
         rdf:about="">
        <dc:format>image/svg+xml</dc:format>
        <dc:type
           rdf:resource="http://purl.org/dc/dcmitype/StillImage" />
        <dc:title></dc:title>
      </cc:Work>
    </rdf:RDF>
  </metadata>
  <g
     inkscape:label="Camada 1"
     inkscape:groupmode="layer"
     id="layer1"
     transform="translate(-23.020941,-326.21055)">
    <g
       id="g3907"
       transform="matrix(0.1231364,0,0,0.12103841,23.458075,289.32798)">
      <g
         id="g3877"
         inkscape:label="0">
        <path
           id="path3879"
           d="m 545.66929,680.31496 a 173.62205,173.62205 0 0 0 -347.24409,0 173.62205,173.62205 0 0 0 347.24409,0 z"
           style="fill:#000000"
           inkscape:connector-curvature="0" />
        <path
           id="path3881"
           d="m 744.09449,680.31496 a 372.04724,372.04724 0 1 0 -744.09449,0 372.04724,372.04724 0 1 0 744.09449,0 z"
           style="fill:none;stroke:#000000;stroke-width:7.0999999;stroke-linecap:round"
           inkscape:connector-curvature="0" />
        <path
           id="path3883"
           d="m 545.66929,680.31496 a 173.62205,173.62205 0 1 0 -347.24409,0 173.62205,173.62205 0 1 0 347.24409,0 z"
           style="fill:none;stroke:#000000;stroke-linecap:round"
           inkscape:connector-curvature="0" />
      </g>
      <g
         id="g3885"
         inkscape:label="RA_Legenda" />
    </g>
  </g>
</svg>
