<svg id="Dotcom74370-homepage-rtcdp-promotion-tsb-logo-desktop-500x375" xmlns="http://www.w3.org/2000/svg" xmlns:xlink="http://www.w3.org/1999/xlink" width="211.863" height="77.782" viewBox="0 0 211.863 77.782">
  <defs>
    <clipPath id="clip-path">
      <rect id="Rectangle_318730" data-name="Rectangle 318730" width="211.863" height="77.782" fill="none"/>
    </clipPath>
  </defs>
  <g id="Group_365551" data-name="Group 365551" clip-path="url(#clip-path)">
    <path id="Path_684255" data-name="Path 684255" d="M541.737,0a38.869,38.869,0,0,0-33.52,19.169,38.884,38.884,0,0,1,0,39.436A38.889,38.889,0,1,0,541.737,0" transform="translate(-368.764 -0.001)" fill="#26358c"/>
    <path id="Path_684256" data-name="Path 684256" d="M330.936,19.169a38.893,38.893,0,0,0-67.042,0,38.883,38.883,0,0,1,0,39.436,38.886,38.886,0,0,0,67.042,0,38.873,38.873,0,0,1,0-39.436" transform="translate(-191.482)" fill="#0068b3"/>
    <path id="Path_684257" data-name="Path 684257" d="M72.412,19.169a38.895,38.895,0,1,0,0,39.436,38.883,38.883,0,0,1,0-39.436" fill="#36bcee"/>
    <path id="Path_684258" data-name="Path 684258" d="M249.693,109.3a38.883,38.883,0,0,0,0-39.436,38.883,38.883,0,0,0,0,39.436" transform="translate(-177.281 -50.69)" fill="#005c9e"/>
    <path id="Path_684259" data-name="Path 684259" d="M249.677,109.285l0-.007a38.864,38.864,0,0,1,0-39.436l0-.007,0,.007a38.872,38.872,0,0,1,0,39.436Zm0-39.428a38.859,38.859,0,0,0,0,39.414,38.868,38.868,0,0,0,0-39.414" transform="translate(-177.265 -50.672)" fill="#005c9e"/>
    <path id="Path_684260" data-name="Path 684260" d="M494.011,109.31a38.884,38.884,0,0,0,0-39.436,38.872,38.872,0,0,0,0,39.436" transform="translate(-354.558 -50.701)" fill="#002f60"/>
    <path id="Path_684261" data-name="Path 684261" d="M115.2,73.481H103.891v34.647H96.085V73.481H85.015V66.393H115.2Z" transform="translate(-61.687 -48.175)" fill="#fff"/>
    <path id="Path_684262" data-name="Path 684262" d="M581.095,66.379h14.61c5.559.057,7.039.122,9.049.706a10.222,10.222,0,0,1,5.554,15.2,7.807,7.807,0,0,1-5.2,3.012c4.613.837,8.629,4.555,8.629,11,0,4.79-2.125,9.046-7.151,10.821-2.658.944-4.726,1-9.455,1H581.095Zm7.71,6.38V83.164h2.412c2.181,0,3.778,0,4.724-.057a11.628,11.628,0,0,0,5.324-.826,4.746,4.746,0,0,0,.358-8.453c-1.664-.946-2.49-1.009-8.164-1.069Zm0,16.262v12.354h7.435c4.612,0,5.848,0,7.862-1.416a5.362,5.362,0,0,0,1.893-4.373,6.479,6.479,0,0,0-.77-3.134c-1.893-3.37-6.265-3.431-8.929-3.431Z" transform="translate(-421.644 -48.165)" fill="#fff"/>
    <path id="Path_684263" data-name="Path 684263" d="M342.745,81.013l-4.282-.937c-3.757-.707-7.625-1.412-7.625-4.931,0-3.166,3.633-5.043,7.8-5.043,6.3,0,9.042,3.7,10.511,5.827l6.151-4.916c-2.957-3.9-7.576-7.892-16.248-7.892-9.74,0-16.372,5.044-16.372,12.908a10.556,10.556,0,0,0,6.984,10.149,38.2,38.2,0,0,0,5.217,1.469L339.87,88.7a31.065,31.065,0,0,1,4.815,1.293c1.292.529,3.111,1.461,3.111,4.107,0,1.406-.53,3.521-3.522,4.75a11.812,11.812,0,0,1-4.46.705c-8.3,0-11.521-4.28-12.679-6.023l-6.305,4.815a18.063,18.063,0,0,0,10.361,7.366,27.686,27.686,0,0,0,7.392.943c8.8,0,17.6-3.817,17.6-13.316,0-8.86-7.859-11.152-13.434-12.326" transform="translate(-232.794 -45.8)" fill="#fff"/>
  </g>
</svg>
