<svg xmlns="http://www.w3.org/2000/svg" width="185.061" height="21.999" viewBox="0 0 185.061 21.999">
  <path id="Path_684532" data-name="Path 684532" d="M90.53,20.87a2,2,0,0,1-.278-.169V15.674a.593.593,0,0,1,.311-.011,12.094,12.094,0,0,0,6.085,1.85c2.03,0,2.652-.726,2.652-1.474s-.529-1.157-2.62-2l-1.4-.562c-3.558-1.4-5.054-3.275-5.054-6.085,0-3.182,2.369-6.331,8.083-6.331a13.928,13.928,0,0,1,4.994.78l.251.12V6.707l-.344-.2a10.889,10.889,0,0,0-5.146-1.152c-1.839,0-2.527.884-2.527,1.566,0,.595.278,1.092,2.62,1.965l1.25.469c4.432,1.621,5.4,3.618,5.4,6.238,0,4.18-3.618,6.331-8.547,6.331a13.177,13.177,0,0,1-5.709-1.059ZM31.086,1V6.462l-.1-.022A7.881,7.881,0,0,0,29.5,6.3a8.6,8.6,0,0,0-2.865.5,7.245,7.245,0,0,0-2.5,1.506,7.728,7.728,0,0,0-1.768,2.467,8.026,8.026,0,0,0-.671,3.389,7.972,7.972,0,0,0,.731,3.536,7.18,7.18,0,0,0,1.91,2.44,8.019,8.019,0,0,0,2.658,1.4,10.167,10.167,0,0,0,2.974.453,15.917,15.917,0,0,0,3.318-.322,14.755,14.755,0,0,0,2.887-.944V1Zm0,16.5-.065.016a5.009,5.009,0,0,1-1.113.126,3.312,3.312,0,0,1-1.544-.377,2.882,2.882,0,0,1-1.173-1.157,4.011,4.011,0,0,1-.437-1.976,4.289,4.289,0,0,1,.426-2.019,2.64,2.64,0,0,1,1.173-1.157A3.728,3.728,0,0,1,30,10.593a4.29,4.29,0,0,1,1.026.12l.065.016V17.5Zm20.586-7.7a6.954,6.954,0,0,0-2.8-2.652,7.783,7.783,0,0,0-1.845-.677,8.742,8.742,0,0,0-2.019-.229,8.324,8.324,0,0,0-3.858.906,7.044,7.044,0,0,0-2.816,2.658,8.139,8.139,0,0,0-1.064,4.3,8.177,8.177,0,0,0,1.064,4.3,7.161,7.161,0,0,0,2.816,2.674,8.5,8.5,0,0,0,7.7,0,7.078,7.078,0,0,0,2.816-2.669,8.247,8.247,0,0,0,1.053-4.3,8.247,8.247,0,0,0-1.053-4.3Zm-4.328,6.282a3.293,3.293,0,0,1-.437.688,2.432,2.432,0,0,1-.551.486,2.55,2.55,0,0,1-2.685,0,2.808,2.808,0,0,1-.993-1.173A4.59,4.59,0,0,1,42.3,14.1a4.651,4.651,0,0,1,.377-2,2.748,2.748,0,0,1,.993-1.157,2.55,2.55,0,0,1,2.685,0A2.825,2.825,0,0,1,47.35,12.1a4.584,4.584,0,0,1,.377,2,4.54,4.54,0,0,1-.377,1.987Zm20.324-5.512a6.651,6.651,0,0,0-1.708-2.39,7.191,7.191,0,0,0-2.379-1.4,8.032,8.032,0,0,0-2.647-.453,8.3,8.3,0,0,0-1.9.207l-.1.027V1H53.812V20.755a13.435,13.435,0,0,0,2.854.933,16.46,16.46,0,0,0,3.264.306,9.5,9.5,0,0,0,3.089-.513,8.335,8.335,0,0,0,2.707-1.523,7.1,7.1,0,0,0,1.883-2.494,8.326,8.326,0,0,0,.688-3.482,8.506,8.506,0,0,0-.628-3.406m-4.841,5.49a3.621,3.621,0,0,1-.54.693,3.088,3.088,0,0,1-.688.5,3.325,3.325,0,0,1-1.6.409A4.164,4.164,0,0,1,59,17.546l-.065-.016V10.762L59,10.746a5.113,5.113,0,0,1,1.141-.12,3.355,3.355,0,0,1,1.561.366,2.825,2.825,0,0,1,1.157,1.124,3.849,3.849,0,0,1,.437,1.932,3.907,3.907,0,0,1-.469,2.019m20.5-5.578a7.093,7.093,0,0,0-.7-1.25,6.334,6.334,0,0,0-.9-1.037,6.867,6.867,0,0,0-2.276-1.414,7.354,7.354,0,0,0-2.641-.48,7.526,7.526,0,0,0-3.711.95,7.194,7.194,0,0,0-2.712,2.685,7.991,7.991,0,0,0-1.021,4.1,8.064,8.064,0,0,0,.671,3.345,7.14,7.14,0,0,0,1.856,2.483,8.3,8.3,0,0,0,2.734,1.534,10.47,10.47,0,0,0,3.367.529,11.349,11.349,0,0,0,2.581-.295,10.333,10.333,0,0,0,2.358-.857V16.777a15.254,15.254,0,0,1-2.2.819,8.32,8.32,0,0,1-2.27.311,5.423,5.423,0,0,1-2.2-.42A3.444,3.444,0,0,1,74.747,16.2a2.973,2.973,0,0,1-.295-.589l-.044-.115h9.414c.016-.262.038-.546.071-.868s.044-.666.044-1a7.719,7.719,0,0,0-.6-3.138ZM74.31,12.443l.027-.1a3.744,3.744,0,0,1,.186-.546,2.908,2.908,0,0,1,.988-1.261,2.381,2.381,0,0,1,1.348-.415,2.512,2.512,0,0,1,1.222.322,2.59,2.59,0,0,1,.977.993,2.675,2.675,0,0,1,.317.917l.016.1H74.31ZM11.45,7.761,7.662,17.169h4.557l1.594,4.557H0l8.585-20.5h5.971l8.552,20.5h-6.08ZM174.462,2.734A2.734,2.734,0,1,1,171.728,0a2.732,2.732,0,0,1,2.734,2.734m-.12,3.809h-5.228V21.628h5.228Zm-59.58,0h-.48V17.033a2.472,2.472,0,0,1-1.741.66c-1.414,0-1.8-.933-1.8-2.281V6.544h-5.228v9.529c0,4.388,2.341,5.861,5.321,5.861a5.932,5.932,0,0,0,3.935-1.233v.922h4.748V6.544h-4.754ZM185.05,10.6V6.789c0-.136-.033-.2-.136-.229V6.549h-2.592a.469.469,0,0,0-.005-.087V2.172l-5.228.78V6.544h-1.752V10.6h1.73v6.789c0,3.094,1.681,4.535,4.568,4.535a7.355,7.355,0,0,0,3.067-.513c.142-.06.273-.12.273-.12V18.01c0-.24-.153-.273-.273-.24a3.4,3.4,0,0,1-.873.12c-1.173,0-1.5-.48-1.5-1.774V10.588h2.734ZM138.393,6.276a7.421,7.421,0,0,0-4.9,1.741,4.572,4.572,0,0,0-3.848-1.741,6.536,6.536,0,0,0-4.235,1.353c-.011-.038-.022-.087-.033-.136V6.549h-4.748V21.634h5.234V11.2a2.733,2.733,0,0,1,1.828-.715,1.721,1.721,0,0,1,1.839,1.768v9.376h5.228v-.136a.522.522,0,0,0,.027-.191V12.645c0-.36,0-.77-.027-1.064v-.289a2.807,2.807,0,0,1,1.888-.84c1.413,0,1.834.933,1.834,2.194v8.983h5.228V12.345c0-4.475-2.494-6.069-5.321-6.069m24.253,0a7.421,7.421,0,0,0-4.9,1.741A4.572,4.572,0,0,0,153.9,6.276a6.536,6.536,0,0,0-4.235,1.353c-.011-.038-.022-.087-.033-.136v-.95h-4.748V21.628h5.228V11.2a2.736,2.736,0,0,1,1.834-.72,1.716,1.716,0,0,1,1.839,1.763v9.387h5.228v-.142a.522.522,0,0,0,.027-.191V12.645c0-.36,0-.77-.027-1.07v-.284a2.807,2.807,0,0,1,1.888-.84c1.4,0,1.828.922,1.834,2.172v9h5.228V12.345C167.967,7.87,165.473,6.276,162.646,6.276Z" transform="translate(0 0)" fill="#fff"/>
</svg>
